<svg width="31" height="31" viewBox="0 0 31 31" fill="none" xmlns="http://www.w3.org/2000/svg">
<path d="M15.5 1.41699C17.3303 1.41699 19.0518 1.74231 20.668 2.39062L20.9893 2.52441C22.6006 3.2197 24.0115 4.14559 25.2246 5.30176L25.4648 5.53613C26.6516 6.72297 27.608 8.10695 28.334 9.69141L28.4766 10.0107C29.214 11.7197 29.5839 13.5478 29.584 15.5C29.584 17.3303 29.2586 19.0518 28.6104 20.668L28.4766 20.9893C27.7349 22.708 26.7308 24.1989 25.4648 25.4648C24.278 26.6516 22.894 27.608 21.3096 28.334L20.9893 28.4766C19.2804 29.2139 17.4521 29.584 15.5 29.584C13.67 29.5839 11.949 29.2585 10.333 28.6104L10.0107 28.4766C8.39959 27.7813 6.98943 26.8552 5.77637 25.6992L5.53613 25.4648C4.34936 24.2781 3.393 22.8939 2.66699 21.3096L2.52441 20.9893C1.78709 19.2804 1.41699 17.4521 1.41699 15.5C1.41703 13.6699 1.74242 11.949 2.39062 10.333L2.52441 10.0107C3.21966 8.39957 4.14569 6.98944 5.30176 5.77637L5.53613 5.53613C6.72297 4.34929 8.10693 3.39302 9.69141 2.66699L10.0107 2.52441C11.7197 1.78701 13.5478 1.41703 15.5 1.41699ZM15.5 3.33398C12.3461 3.33406 9.61782 4.37822 7.33887 6.45898L6.88867 6.88867C4.5218 9.25555 3.33406 12.1358 3.33398 15.5C3.33398 18.6542 4.37804 21.383 6.45898 23.6621L6.88867 24.1113C9.25555 26.4782 12.1358 27.6669 15.5 27.667C18.6541 27.667 21.3831 26.6228 23.6621 24.542L24.1113 24.1113C26.4783 21.7444 27.667 18.8644 27.667 15.5C27.6669 12.3461 26.6227 9.61779 24.542 7.33887L24.1113 6.88867C21.7444 4.52194 18.8642 3.33398 15.5 3.33398ZM16.459 8.70898V15.124L21.6475 20.3125L20.3125 21.6475L14.542 15.877V8.70898H16.459Z" fill="white" stroke="white"/>
</svg>
