<svg width="140" height="107" viewBox="0 0 140 107" fill="none" xmlns="http://www.w3.org/2000/svg">
<rect width="140" height="107" fill="white"/>
<path d="M91.0227 54.608C84.7123 55.0586 79.211 53.1175 74.2587 49.4214C73.9493 49.1905 73.662 48.9294 73.3713 48.6746C72.4812 47.8945 72.4404 47.8923 71.5534 48.6297C70.1508 49.7954 68.6586 50.8176 67.0523 51.6982C63.761 53.5027 60.2655 54.5945 56.5153 54.6758C50.9552 54.7963 46.0395 53.2493 42.3614 48.8011C42.0144 48.3815 41.7003 47.9316 41.4048 47.474C41.1976 47.1532 41.0961 46.7847 41.4663 46.4966C41.8085 46.2303 42.202 46.209 42.5363 46.4907C42.7932 46.7072 43.0083 46.9823 43.2077 47.2562C45.9576 51.0337 49.7792 52.6949 54.3454 52.9304C60.72 53.2591 66.1483 51.0046 70.9215 46.9356C72.3893 45.6844 72.4787 45.6907 73.9248 46.9552C77.597 50.1662 81.8239 52.2936 86.6784 52.8522C90.331 53.2725 93.9638 52.9283 97.2998 51.1152C98.8197 50.2891 100.103 49.1779 101.191 47.8391C101.492 47.4685 101.771 47.0801 102.07 46.7073C102.399 46.296 102.831 46.1595 103.274 46.4566C103.758 46.7807 103.548 47.23 103.321 47.6024C102.335 49.2197 101.005 50.5184 99.4714 51.6106C96.9623 53.3974 94.1274 54.2908 91.0227 54.608Z" fill="#24712C"/>
<path d="M102.641 53.9694C101.876 55.1224 100.782 55.8385 99.6908 56.5303C95.5378 59.1627 90.9249 60.1906 86.1035 59.7287C81.264 59.2651 76.9125 57.3774 73.2573 54.0698C72.4419 53.332 72.4165 53.3259 71.5951 54.0651C68.9217 56.4709 65.8318 58.1358 62.3757 59.069C59.1265 59.9464 55.8459 60.0415 52.5087 59.3666C49.7642 58.8116 47.2187 57.8786 44.8777 56.362C44.0526 55.8275 43.302 55.2024 42.5897 54.5287C42.2404 54.1984 41.9214 53.8523 42.3353 53.3675C42.7387 52.895 43.1872 53.026 43.6077 53.3404C44.4091 53.9397 45.1955 54.5551 46.0427 55.0955C48.3462 56.5649 50.8531 57.431 53.5523 57.8219C59.994 58.7548 65.6147 56.9961 70.4986 52.7565C70.8939 52.4133 71.296 52.078 71.6981 51.7427C72.1689 51.3502 72.6455 51.3408 73.1185 51.739C73.7627 52.2813 74.3968 52.8357 75.0485 53.3689C77.5709 55.4326 80.3875 56.9597 83.5915 57.6012C89.9133 58.8669 95.7103 57.6784 100.833 53.645C101.029 53.4906 101.233 53.3401 101.453 53.2231C102.1 52.8782 102.563 53.1524 102.641 53.9694Z" fill="#24712C"/>
<path d="M57.5468 64.9746C54.0915 64.9965 50.7516 64.6854 47.5332 63.5338C47.2527 63.4334 46.976 63.329 46.7448 63.1371C46.4636 62.9037 46.2688 62.6373 46.4658 62.2515C46.6474 61.896 46.9473 61.7709 47.321 61.8622C47.8515 61.9918 48.3873 62.1149 48.9001 62.2985C51.8374 63.35 54.8793 63.4277 57.9427 63.275C60.9289 63.1262 63.7917 62.4214 66.5383 61.2532C68.433 60.4473 69.9883 59.1558 71.4783 57.7684C72.3522 56.9547 72.5257 56.9494 73.397 57.801C75.1448 59.5094 77.0995 60.9046 79.401 61.7499C83.2256 63.1547 87.1797 63.5439 91.2352 63.2369C93.2133 63.0872 95.0755 62.5181 96.9601 61.9981C97.0259 61.98 97.0892 61.9529 97.1552 61.9357C97.5824 61.8241 98.0309 61.6919 98.2932 62.2028C98.4967 62.599 98.2067 63.1726 97.654 63.3988C95.9362 64.1016 94.1375 64.4962 92.2982 64.7088C89.6676 65.0127 87.0336 65.1423 84.4033 64.7207C80.1741 64.0426 76.2123 62.7362 73.025 59.7114C72.5698 59.2794 72.2679 59.2855 71.8356 59.6931C68.6043 62.7394 64.6264 64.0984 60.3313 64.7302C59.43 64.8627 58.5247 64.9512 57.5468 64.9746Z" fill="#24712C"/>
<path d="M50.9942 45.9968C53.0683 47.5863 55.2969 48.403 57.911 47.9126C58.8502 47.7364 59.5859 47.2392 60.3307 46.7162C60.6849 46.4675 61.0388 46.2133 61.5053 46.2318C62.1003 46.2554 62.3701 46.6468 62.1628 47.2029C62.0042 47.6286 61.6607 47.9006 61.3114 48.1565C58.7138 50.0605 55.8838 50.0788 52.9946 49.0486C51.0514 48.3557 49.384 47.2331 48.3055 45.3828C48.0259 44.9031 48.0374 44.5253 48.3438 44.0691C50.9798 40.1447 56.9734 38.1158 61.6536 41.7457C62.1989 42.1686 62.6658 42.6677 63.0073 43.265C63.2767 43.7361 63.6625 43.9237 64.1866 43.9173C64.9152 43.9084 65.6441 43.9132 66.3727 43.9216C66.8767 43.9273 67.3567 43.9845 67.3942 44.6484C67.4284 45.2545 67.1781 45.5355 66.4024 45.5611C64.9236 45.6099 63.4428 45.608 61.9628 45.6089C59.139 45.6105 56.3152 45.6004 53.4914 45.5917C53.2188 45.5908 52.945 45.5782 52.6741 45.5493C52.1654 45.4951 51.8912 45.226 51.9205 44.6905C51.95 44.1497 52.2629 43.9286 52.7708 43.9267C54.2283 43.9212 55.6857 43.9176 57.1432 43.9153C58.3502 43.9135 59.5571 43.9158 60.7641 43.9131C60.9194 43.9127 61.0839 43.9285 61.2245 43.8021C61.2465 43.466 60.9626 43.3432 60.7701 43.1811C57.3787 40.3255 52.6824 41.5106 50.2202 44.2993C49.9277 44.6307 49.9 44.931 50.2306 45.2461C50.4772 45.4812 50.7159 45.7245 50.9942 45.9968Z" fill="#24712C"/>
<path d="M88.7195 48.0251C91.1369 47.9534 92.976 46.8119 94.6092 45.242C94.9352 44.9286 94.9163 44.6202 94.6136 44.2929C91.9124 41.3717 87.5803 40.5005 84.2619 42.9996C83.9762 43.2148 83.6792 43.4273 83.5205 43.8146C83.829 43.9949 84.1525 43.9239 84.4577 43.9246C86.9634 43.9307 89.4691 43.925 91.9747 43.931C92.4388 43.9321 92.9332 43.9377 92.9773 44.5829C93.0122 45.0949 92.8792 45.4474 92.251 45.4971C89.9754 45.677 87.6977 45.5536 85.4215 45.5842C83.3034 45.6127 81.1846 45.5922 79.0662 45.5867C78.7484 45.5859 78.4307 45.5494 78.1131 45.5293C77.595 45.4965 77.3302 45.2618 77.3596 44.7029C77.3891 44.1419 77.7035 43.9504 78.201 43.9418C79.0664 43.9269 79.932 43.9092 80.7974 43.9134C81.1726 43.9152 81.4379 43.7925 81.6542 43.473C84.5583 39.1814 90.4806 38.7322 94.5495 42.0087C95.2449 42.5686 95.8477 43.2101 96.3975 43.9136C96.8033 44.4328 96.8375 44.8929 96.487 45.4654C95.427 47.1966 93.8648 48.2958 92.0159 48.9938C89.5105 49.9397 86.9994 50.0412 84.5427 48.78C83.9497 48.4756 83.4165 48.0875 82.9688 47.5954C82.7106 47.3116 82.3926 46.99 82.7399 46.5881C83.0706 46.2053 83.5027 46.1059 83.9714 46.363C84.1307 46.4504 84.2965 46.5388 84.429 46.6598C85.6307 47.7577 87.0601 48.1422 88.7195 48.0251Z" fill="#24712C"/>
<path d="M60.7518 68.8196C64.126 68.4621 67.1258 67.2968 69.8072 65.3273C70.3741 64.9109 70.8901 64.4246 71.4225 63.9625C72.29 63.2093 72.576 63.1823 73.3941 63.9644C75.2521 65.7408 77.4044 67.0634 79.8211 67.8763C83.4933 69.1115 87.2403 69.4691 91.0296 68.3447C91.9409 68.0743 92.5116 68.2204 92.6643 68.771C92.7874 69.215 92.3508 69.6628 91.528 69.9161C88.1077 70.969 84.6879 70.8788 81.2374 70.0128C78.7318 69.3839 76.3942 68.4341 74.3141 66.894C73.8577 66.5561 73.4047 66.2033 73.0036 65.8038C72.5907 65.3925 72.2757 65.4082 71.8534 65.799C70.0747 67.445 68.0015 68.6032 65.7231 69.4145C62.1301 70.6938 58.4596 71.0397 54.7068 70.3176C54.108 70.2024 53.5264 69.9805 52.9504 69.7708C52.507 69.6094 52.0667 69.3656 52.2527 68.7836C52.4445 68.1837 52.9467 68.0785 53.4764 68.2615C54.6278 68.6594 55.8191 68.7991 57.0195 68.9383C58.2547 69.0816 59.4732 69.0272 60.7518 68.8196Z" fill="#24712C"/>
<path d="M60.9358 28.9681C60.2396 28.7116 59.5668 28.6028 58.885 28.5403C58.5804 28.5124 58.3219 28.5884 58.2923 28.9443C58.0944 31.3284 58.3698 33.5511 60.4596 35.138C61.0676 35.5997 61.769 35.8663 62.4914 36.0846C62.7779 36.1712 63.0537 36.2768 63.2637 36.4999C63.4709 36.7199 63.5112 36.9786 63.4112 37.2595C63.3171 37.5235 63.1151 37.6536 62.8468 37.6895C62.5025 37.7356 62.1658 37.6976 61.8356 37.5895C59.1291 36.7031 57.4364 34.8883 56.7105 32.1298C56.3223 30.6547 56.4152 29.2082 56.7414 27.7535C56.9275 26.9236 57.2444 26.7562 58.1061 26.7952C60.2308 26.8914 62.194 27.4339 63.8812 28.7731C65.6305 30.1616 66.4508 32.0272 66.602 34.2146C66.6349 34.6901 66.6722 35.1785 66.602 35.6451C66.4464 36.6787 66.8213 37.4941 67.4747 38.2527C67.8894 38.734 68.2384 39.2714 68.6208 39.7807C68.9103 40.1661 68.9269 40.5605 68.5583 40.875C68.1846 41.1938 67.753 41.0823 67.4466 40.771C67.0015 40.3187 66.605 39.8156 66.2135 39.3142C64.1414 36.6613 62.0779 34.0017 60.0098 31.3456C59.6401 30.8708 59.6275 30.3143 60.027 30.0103C60.5099 29.6429 60.9334 29.8543 61.2932 30.2313C62.3034 31.2898 63.0285 32.566 63.9332 33.7058C64.1988 34.0403 64.4296 34.4021 64.7793 34.6836C65.4211 32.829 63.5892 30.1023 60.9358 28.9681Z" fill="#24712C"/>
<path d="M82.1842 36.1543C83.9408 35.6175 85.3558 34.7021 86.0555 33.0016C86.5692 31.7528 86.7564 30.4258 86.5611 29.063C86.504 28.6649 86.3323 28.5043 85.9333 28.5474C82.7979 28.886 80.5141 30.3752 79.9295 33.8562C79.8858 34.1162 79.8104 34.3886 80.0002 34.6787C80.4091 34.5104 80.5885 34.1236 80.8263 33.8178C81.5381 32.9028 82.2143 31.9602 82.9148 31.0363C83.1202 30.7654 83.3504 30.5111 83.5871 30.2665C83.9339 29.9081 84.3183 29.5688 84.815 30.0087C85.2821 30.4223 85.1954 30.8761 84.8325 31.3325C84.0686 32.2936 83.313 33.2613 82.5631 34.2333C80.9665 36.3031 79.3757 38.3775 77.7821 40.4497C77.699 40.5578 77.6244 40.6774 77.5231 40.7656C77.1283 41.1095 76.6572 41.1309 76.2644 40.8501C75.8469 40.5517 75.9826 40.1246 76.2462 39.7632C76.7816 39.0289 77.3177 38.2944 77.8756 37.5771C78.1689 37.1999 78.2702 36.8373 78.2306 36.3316C77.9636 32.9119 78.8252 29.9558 81.9603 28.0731C83.5362 27.1267 85.3042 26.8013 87.1256 26.7553C87.5893 26.7436 87.9217 26.9753 88.0389 27.4268C89.1428 31.6806 87.4181 36.402 82.6798 37.6444C82.2989 37.7443 81.9167 37.8409 81.5942 37.509C81.1418 37.0434 81.3314 36.5784 82.1842 36.1543Z" fill="#24712C"/>
<path d="M52.3371 34.0899C52.9176 34.2372 52.7182 33.8897 52.6161 33.6974C51.7145 31.9986 49.8677 30.5432 47.5115 30.928C46.9059 31.0268 46.3116 31.1937 45.7114 31.3263C45.2827 31.4211 45.0885 31.6384 45.2155 32.1057C45.9541 34.8243 47.5669 36.6446 50.5256 36.5514C50.958 36.5378 51.3911 36.5453 51.8239 36.5446C52.2694 36.5438 52.5832 36.7311 52.638 37.1951C52.6978 37.7008 52.3729 37.9553 51.9402 38.0582C50.7578 38.3393 49.5889 38.1804 48.4291 37.8962C45.9589 37.2908 44.612 35.5663 43.8399 33.2823C43.6655 32.7665 43.5786 32.2208 43.3977 31.7078C43.1524 31.0119 43.4324 30.5472 44.007 30.2268C47.5877 28.2307 52.6169 28.9473 54.3519 33.5531C54.44 33.7869 54.5444 34.0191 54.5951 34.2617C54.7779 35.1364 55.2084 35.7896 56.0585 36.1734C56.5129 36.3785 56.8816 36.742 56.5621 37.3157C56.2502 37.8757 55.7641 37.7702 55.3152 37.5315C52.8636 36.228 50.4172 34.9148 47.9764 33.5913C47.5147 33.3409 47.1065 32.9939 47.4139 32.3924C47.6614 31.9081 48.0705 31.8057 48.565 32.073C49.8061 32.7438 51.0512 33.4072 52.3371 34.0899Z" fill="#24712C"/>
<path d="M88.9196 36.0834C89.6131 35.7598 89.9241 35.2421 90.1209 34.5573C90.9571 31.6464 92.7403 29.6836 95.8576 29.2471C97.6161 29.0009 99.2972 29.4071 100.865 30.2335C101.269 30.4463 101.548 30.7948 101.461 31.2908C101.124 33.1983 100.541 34.9918 99.1195 36.4143C98.0849 37.4494 96.8069 37.919 95.3979 38.0965C94.7895 38.1732 94.1727 38.1891 93.5589 38.2139C93.2388 38.2269 92.9214 38.1756 92.6319 38.0219C92.2554 37.8219 92.1485 37.4967 92.2251 37.1001C92.3019 36.7029 92.58 36.5216 92.9577 36.5147C93.4355 36.5058 93.914 36.5491 94.392 36.5444C96.9567 36.5195 98.8083 35.09 99.4865 32.6214C99.8104 31.4422 99.8003 31.4562 98.5792 31.1445C96.9471 30.7279 95.3776 30.7004 93.9341 31.7275C93.0843 32.3322 92.4953 33.1369 92.0504 34.0892C92.3918 34.2324 92.5833 34.0248 92.7905 33.9175C93.9627 33.3102 95.1347 32.7023 96.2952 32.0733C96.7363 31.8343 97.0941 31.9056 97.3742 32.2856C97.6588 32.6718 97.4852 33.0102 97.1893 33.3164C96.8988 33.6169 96.5381 33.8144 96.1779 34.0071C94.0106 35.1668 91.8395 36.3195 89.6678 37.4711C89.5079 37.5558 89.3392 37.6384 89.1645 37.6781C88.7669 37.7686 88.4246 37.6378 88.231 37.2823C88.0386 36.929 88.1913 36.6218 88.485 36.3833C88.6083 36.2833 88.7456 36.2005 88.9196 36.0834Z" fill="#24712C"/>
<path d="M62.3222 19.136C62.7757 20.053 63.2038 20.9248 63.7077 21.9508C63.984 20.9863 63.8513 20.2364 63.5428 19.501C62.9879 18.1783 61.9455 17.3855 60.6586 16.8523C60.2452 16.681 60.0034 16.8064 59.8914 17.2204C59.5277 18.5649 59.4401 19.9093 59.9748 21.2302C60.2532 21.918 60.815 22.3344 61.4596 22.6708C61.8323 22.8653 62.2513 23.0491 62.2416 23.5993C62.2298 24.2676 61.8434 24.585 61.2204 24.3483C59.7361 23.7845 58.7243 22.7684 58.1723 21.2523C57.6082 19.703 57.8449 18.2073 58.3095 16.7128C58.942 14.6785 59.0434 14.6196 61.0915 15.2926C63.2429 15.9996 64.7374 17.4223 65.3807 19.6043C65.7059 20.7076 65.6302 21.8692 65.2393 22.961C64.9209 23.8503 64.8487 24.6781 65.4205 25.4849C65.4714 25.5567 65.4872 25.653 65.5209 25.7373C65.7052 26.1984 65.6569 26.6099 65.1729 26.8332C64.6931 27.0546 64.3203 26.8271 64.0887 26.4048C63.6955 25.6877 63.3218 24.9593 62.9632 24.2243C62.2658 22.7951 61.5895 21.3556 60.8924 19.9263C60.7421 19.6179 60.6766 19.333 60.878 19.0285C61.2967 18.3953 61.8697 18.4197 62.3222 19.136Z" fill="#24712C"/>
<path d="M79.9548 24.2741C79.7761 23.5893 79.5696 22.9636 79.4164 22.3251C78.5847 18.8594 81.3024 15.4225 85.0349 14.9548C85.5756 14.8871 85.9505 15.0749 86.1335 15.5424C86.9569 17.6458 87.4169 19.7702 86.3496 21.9417C85.7914 23.0776 84.8773 23.8293 83.7466 24.3437C83.2949 24.5493 82.9371 24.3763 82.6928 23.9911C82.4354 23.5854 82.6164 23.2559 82.9535 22.9853C83.0066 22.9427 83.0611 22.899 83.1213 22.8684C85.3264 21.7496 85.5007 19.8536 85.0813 17.7398C84.8718 16.6841 84.6851 16.6028 83.7119 17.0684C82.1653 17.8083 81.1774 18.9668 80.9916 20.7132C80.9588 21.0213 80.9205 21.349 81.1567 21.6716C81.6778 21.1449 81.8323 20.435 82.1887 19.844C82.3762 19.5331 82.536 19.2032 82.7457 18.9085C82.9487 18.6232 83.2428 18.5 83.5834 18.6773C83.9335 18.8596 84.1599 19.1333 84.0667 19.5572C84.0281 19.7326 83.9511 19.9025 83.8721 20.0656C82.8908 22.0906 81.9076 24.1146 80.9193 26.1362C80.8303 26.3182 80.7241 26.5007 80.5891 26.6498C80.2805 26.9907 79.9035 26.9864 79.538 26.7595C79.1763 26.5349 79.0953 26.2113 79.2809 25.8166C79.5126 25.3239 79.7287 24.824 79.9548 24.2741Z" fill="#24712C"/>
<path d="M73.2855 19.0939C74.908 20.6828 76.0636 22.4987 76.7663 24.6152C77.6244 27.1999 76.9291 29.4385 75.3293 31.4961C75.0301 31.8808 74.6503 32.1234 74.1434 31.8594C73.6894 31.623 73.4992 31.2889 73.8154 30.8072C73.915 30.6553 74.0088 30.4971 74.1264 30.3599C75.7395 28.4774 75.7446 26.3997 74.8567 24.2277C74.3718 23.0413 73.6938 21.9671 72.8386 21.0067C72.6196 20.7607 72.3991 20.5721 72.113 20.9034C70.422 22.8622 69.1095 24.9673 69.4669 27.7208C69.6038 28.776 70.1413 29.6338 70.7683 30.4557C71.0739 30.8563 71.437 31.2676 70.8565 31.7408C70.3889 32.122 69.9632 32.0484 69.4691 31.4339C67.6055 29.1158 67.2738 26.5494 68.3439 23.8125C69.0471 22.014 70.1186 20.4384 71.5342 19.1089C72.2895 18.3995 72.4176 18.3975 73.2855 19.0939Z" fill="#24712C"/>
<path d="M77.8793 72.3934C79.3493 72.7732 80.785 72.9673 82.2524 72.8863C82.4318 72.8764 82.6196 72.8908 82.7935 72.9342C83.2605 73.0508 83.4701 73.3651 83.4284 73.8428C83.3878 74.3073 83.1132 74.5235 82.6638 74.55C79.1375 74.7582 75.8735 74.0393 73.0557 71.7982C72.638 71.466 72.3157 71.3917 71.8667 71.7534C69.0627 74.0117 65.8083 74.7546 62.2755 74.5617C61.7258 74.5317 61.4037 74.3423 61.3853 73.7733C61.3679 73.2335 61.7549 72.8505 62.3463 72.8685C63.5796 72.9059 64.7989 72.8394 66.0106 72.5819C67.9394 72.1721 69.6756 71.3735 71.2022 70.1244C71.3782 69.9804 71.5629 69.8469 71.7423 69.7068C72.2289 69.327 72.6956 69.3484 73.1595 69.7562C74.5286 70.9597 76.084 71.8353 77.8793 72.3934Z" fill="#24712C"/>
<path d="M55.6761 86.8724C55.7104 87.3199 56.0002 87.3245 56.2781 87.3247C57.0516 87.3253 57.8252 87.3064 58.5985 87.3154C59.0564 87.3207 59.186 87.0818 59.1787 86.6734C59.1665 85.9922 59.1725 85.3107 59.1745 84.6294C59.1762 84.0755 59.4224 83.6879 60.0003 83.6589C60.5707 83.6304 60.6514 84.1159 60.6643 84.5141C60.7091 85.8979 60.7121 87.2831 60.7195 88.6678C60.7244 89.5761 60.7327 90.4854 60.694 91.3923C60.6738 91.8672 60.5206 92.3051 59.8994 92.2925C59.2645 92.2796 59.1847 91.8418 59.1793 91.3534C59.1722 90.7175 59.1628 90.0813 59.1753 89.4457C59.1832 89.0471 59.0261 88.8601 58.6153 88.8663C57.8192 88.8784 57.0228 88.8803 56.2267 88.8692C55.813 88.8635 55.661 89.0562 55.6674 89.4509C55.6774 90.0639 55.6935 90.6792 55.6512 91.2897C55.6166 91.7885 55.5656 92.3397 54.8349 92.2988C54.1713 92.2616 54.1151 91.7841 54.1145 91.2775C54.1122 89.0971 54.1117 86.9168 54.1113 84.7365C54.1113 84.6457 54.1137 84.5545 54.1231 84.4643C54.171 84.0031 54.4193 83.6637 54.8769 83.6311C55.3833 83.5951 55.6093 84.0013 55.6369 84.4292C55.6879 85.2209 55.6649 86.0173 55.6761 86.8724Z" fill="#24712C"/>
<path d="M63.15 87.6196C63.1504 86.6657 63.1315 85.7795 63.1566 84.8945C63.1845 83.9126 63.513 83.5645 64.4737 83.5383C65.6103 83.5073 66.7485 83.5182 67.8857 83.5343C68.3236 83.5406 68.7696 83.6001 68.9132 84.1338C69.0824 84.7625 68.8053 85.165 68.1431 85.1857C67.2339 85.2142 66.3231 85.2185 65.4135 85.2013C64.8939 85.1915 64.6928 85.3809 64.6886 85.918C64.6774 87.3589 64.6566 87.3577 66.1239 87.3434C66.5333 87.3394 66.9438 87.3259 67.3519 87.3494C67.6914 87.3689 68.0825 87.3884 68.1004 87.8605C68.1185 88.3346 67.9549 88.696 67.4101 88.7886C66.7528 88.9004 66.0924 88.861 65.4356 88.8471C64.8799 88.8354 64.6225 89.0263 64.6952 89.5949C64.7094 89.7067 64.6978 89.8217 64.6984 89.9353C64.7035 90.8487 64.7035 90.8491 65.6067 90.8518C66.4485 90.8543 67.2902 90.8528 68.1319 90.8593C68.5747 90.8626 68.9081 91.0474 68.9116 91.5252C68.9152 92.0068 68.6249 92.2867 68.1371 92.2919C66.82 92.3059 65.5069 92.4615 64.1842 92.3254C63.4693 92.2519 63.1662 91.8985 63.1603 91.2306C63.1499 90.0497 63.1527 88.8688 63.15 87.6196Z" fill="#24712C"/>
<path d="M28.616 89.3531C28.3879 89.8335 28.498 90.2957 28.469 90.7453C28.4486 91.0625 28.4565 91.3829 28.4138 91.6968C28.3617 92.0804 28.1513 92.3024 27.7249 92.2974C27.3028 92.2924 27.082 92.0794 27.0443 91.6886C26.9898 91.1239 26.9374 90.5558 26.939 89.9893C26.9439 88.1938 26.8653 86.3971 27.0161 84.6028C27.0596 84.0853 27.249 83.6714 27.7964 83.6654C28.3745 83.659 28.4447 84.1642 28.4585 84.603C28.483 85.3841 28.4654 86.1666 28.4654 86.9485C28.5393 86.9696 28.6131 86.9908 28.687 87.0119C29.2102 86.4262 29.7421 85.8481 30.2537 85.2525C30.6549 84.7855 31.056 84.3188 31.5367 83.9328C31.804 83.7182 32.1178 83.4875 32.4506 83.7928C32.809 84.1216 32.8011 84.5534 32.5219 84.9045C31.9277 85.6516 31.3265 86.4022 30.6478 87.0701C30.1794 87.5311 30.2644 87.8046 30.6589 88.2403C31.4523 89.1166 32.1874 90.0458 32.9376 90.9605C33.2266 91.3129 33.4623 91.7294 33.0459 92.1085C32.6194 92.4968 32.2427 92.168 31.9119 91.8777C31.0532 91.1241 30.3813 90.1962 29.5893 89.3802C29.305 89.0872 28.9974 88.8175 28.616 89.3531Z" fill="#24712C"/>
<path d="M101.309 90.4413C100.983 89.7315 100.998 89.0276 101.002 88.3225C101.009 87.0971 101.006 85.8717 101.002 84.6464C101 84.0971 101.214 83.6816 101.797 83.658C102.37 83.6349 102.465 84.1143 102.516 84.5562C102.55 84.8479 102.541 85.1448 102.545 85.4394C102.555 86.2755 102.594 86.3063 103.4 86.0811C105.543 85.4819 107.811 87.512 107.306 89.6261C106.975 91.0083 106.118 91.9811 104.661 92.2423C103.328 92.4812 102.339 91.8482 101.549 90.834C101.466 90.7272 101.402 90.605 101.309 90.4413ZM102.849 90.2223C103.252 90.7406 103.826 90.8612 104.428 90.8433C105.232 90.8193 105.784 90.2166 105.88 89.3219C105.967 88.5092 105.574 87.8711 104.823 87.6501C104.14 87.4492 103.42 87.405 102.919 87.9701C102.35 88.6123 102.435 89.3878 102.849 90.2223Z" fill="#24712C"/>
<path d="M82.2445 90.1158C82.6889 90.0139 82.9832 90.1519 83.1058 90.5317C83.2429 90.9565 82.9478 91.2182 82.6581 91.4429C80.9181 92.7928 78.1975 92.4337 76.8528 90.6827C75.8171 89.3339 75.5081 87.8729 76.2115 86.2763C76.9277 84.6506 78.2553 83.8141 79.9533 83.5613C80.842 83.429 81.657 83.779 82.3785 84.297C82.7647 84.5743 82.8452 84.9646 82.6228 85.3825C82.3743 85.8494 81.9687 85.8141 81.5606 85.6394C80.9515 85.3789 80.3609 85.1565 79.6581 85.2682C78.4299 85.4634 77.7618 86.2182 77.4974 87.3422C77.2354 88.4561 77.53 89.4787 78.3728 90.2684C79.1387 90.986 80.0632 90.9623 80.9966 90.6285C81.4026 90.4833 81.7948 90.2995 82.2445 90.1158Z" fill="#24712C"/>
<path d="M48.6365 85.2949C48.2727 85.377 48.0351 85.5246 48.0195 85.8849C48.0042 86.2382 48.2442 86.4162 48.514 86.5542C49.1004 86.8543 49.7016 87.126 50.2825 87.4361C51.5139 88.0936 51.9964 89.2096 51.5768 90.3809C51.1381 91.6054 49.7119 92.4885 48.5023 92.2592C47.7538 92.1173 47.0649 91.8269 46.5115 91.2804C46.2101 90.9829 46.0474 90.6203 46.3116 90.2434C46.594 89.8404 46.997 89.9821 47.3533 90.1544C47.5551 90.2521 47.7263 90.4119 47.9149 90.5383C48.4237 90.8797 48.965 90.9504 49.5354 90.713C49.9185 90.5535 50.1763 90.2648 50.2478 89.8614C50.3218 89.4436 50.0505 89.1701 49.7275 88.98C49.0818 88.5998 48.41 88.2638 47.7663 87.8803C47.0266 87.4397 46.3083 86.9155 46.3569 85.9504C46.4055 84.984 47.0425 84.3505 47.8647 83.9068C48.9616 83.315 50.0463 83.5007 50.8843 84.4179C51.2533 84.8217 51.3121 85.3029 51.0021 85.7274C50.6465 86.2142 50.2331 85.9154 49.8728 85.6647C49.5133 85.4145 49.1614 85.1636 48.6365 85.2949Z" fill="#24712C"/>
<path d="M88.1463 92.2359C85.7813 91.526 84.8828 89.1639 86.2104 87.2748C86.9055 86.2855 88.4067 85.7429 89.5335 86.0736C90.946 86.4882 91.8563 87.556 91.8989 88.902C91.9262 89.7639 91.9256 90.6284 91.893 91.4901C91.8651 92.2263 91.4763 92.4618 90.8002 92.1586C90.4836 92.0167 90.2041 92.0033 89.8827 92.1028C89.3361 92.2718 88.7765 92.3656 88.1463 92.2359ZM90.2631 90.0003C90.3255 89.7364 90.4199 89.4755 90.4445 89.2082C90.5244 88.3369 90.0056 87.7212 89.0862 87.5612C88.1798 87.4034 87.3733 87.8242 87.1604 88.566C86.92 89.4037 87.2736 90.4042 87.919 90.7121C88.6775 91.0741 89.6558 90.8103 90.2631 90.0003Z" fill="#24712C"/>
<path d="M118.62 91.7192C118.469 90.0728 118.528 88.4817 118.577 86.8936C118.602 86.0846 118.962 85.8945 119.769 86.1524C119.996 86.2253 120.201 86.2325 120.431 86.1562C122.219 85.562 123.996 86.6697 124.146 88.5274C124.226 89.5207 124.176 90.5259 124.155 91.5251C124.146 91.9229 124.054 92.2933 123.507 92.3039C122.958 92.3145 122.693 92.044 122.675 91.536C122.643 90.6056 122.648 89.6739 122.628 88.7429C122.612 87.9409 122.278 87.602 121.467 87.5439C120.699 87.4889 120.267 87.8334 120.16 88.5878C120.022 89.5604 120.132 90.5404 120.074 91.5152C120.052 91.8785 119.948 92.2078 119.529 92.2716C119.119 92.3341 118.743 92.2799 118.62 91.7192Z" fill="#24712C"/>
<path d="M116.086 88.5086C116.174 90.7849 114.777 92.3695 112.807 92.2958C111.495 92.2468 110.196 91.1119 109.931 89.7826C109.633 88.2948 110.346 87.0134 111.593 86.31C113.241 85.3807 115.732 86.5048 116.086 88.5086ZM113.931 90.6297C114.289 90.4222 114.484 90.0825 114.594 89.7108C114.787 89.0593 114.711 88.4125 114.193 87.9494C113.594 87.4146 112.85 87.4178 112.132 87.6855C111.492 87.9241 111.3 88.4735 111.298 89.1126C111.293 90.5966 112.246 91.1866 113.931 90.6297Z" fill="#24712C"/>
<path d="M94.1497 23.7849C93.5666 25.3366 92.3035 25.7532 91.2523 25.6571C89.8536 25.5293 88.8424 24.4729 88.6124 23.0348C88.3497 21.3915 90.1631 19.7591 91.9207 20.0569C93.7676 20.3697 94.6843 21.8682 94.1497 23.7849ZM90.3964 23.187C90.7338 23.9105 91.1955 24.1659 91.824 23.9766C92.341 23.8209 92.6962 23.2749 92.6432 22.7173C92.5784 22.0357 92.1006 21.6494 91.3808 21.6965C90.6536 21.744 90.3732 22.1311 90.3964 23.187Z" fill="#24712C"/>
<path d="M53.7848 25.6415C52.3633 25.7627 51.2534 25.1105 50.7239 23.8914C50.2517 22.8043 50.5192 21.5518 51.3893 20.7753C52.3581 19.9106 53.7255 19.7558 54.8788 20.4471C55.8152 21.0084 56.2844 21.9116 56.1948 22.9733C56.1026 24.0652 55.5517 24.9495 54.4894 25.4172C54.2826 25.5083 54.0574 25.5574 53.7848 25.6415ZM52.326 22.2748C52.0581 23.0509 52.2661 23.669 52.8857 23.9382C53.4096 24.1658 54.021 23.9493 54.3513 23.4192C54.6564 22.9293 54.5264 22.226 54.0699 21.8974C53.5767 21.5425 52.861 21.6664 52.326 22.2748Z" fill="#24712C"/>
<path d="M73.1901 37.115C73.0181 37.6552 72.6551 37.7769 72.2038 37.6875C71.7413 37.5959 71.6034 37.2515 71.6004 36.8247C71.5976 36.4387 71.5888 36.0526 71.5889 35.6665C71.589 32.8075 71.5904 29.9485 71.5926 27.0895C71.5928 26.8398 71.5898 26.5891 71.6094 26.3405C71.6492 25.835 71.9633 25.6427 72.4395 25.635C72.9023 25.6275 73.1581 25.8204 73.2028 26.3037C73.3451 27.8448 73.3028 29.3908 73.2974 30.9329C73.2904 32.9745 73.4084 35.0196 73.1901 37.115Z" fill="#24712C"/>
<path d="M74.4997 16.3489C72.976 17.9704 71.6508 17.7181 70.4744 16.5152C69.5257 15.5451 69.5976 14.0232 70.5378 13.0723C71.53 12.0688 72.9975 11.9992 74.12 12.9025C75.1648 13.7433 75.3303 15.1183 74.4997 16.3489ZM73.0472 14.2122C72.3497 13.795 71.6544 13.9793 71.5353 14.6253C71.4552 15.06 71.5502 15.4367 71.9916 15.6535C72.4203 15.864 72.7902 15.7514 73.1067 15.4372C73.4815 15.0651 73.4242 14.6713 73.0472 14.2122Z" fill="#24712C"/>
<path d="M35.8656 92.0673C35.7087 91.8195 35.6811 91.5933 35.6807 91.3658C35.6783 89.9137 35.6602 88.4612 35.6888 87.0097C35.7066 86.1015 36.02 85.9015 36.8951 86.1703C37.1551 86.2501 37.3787 86.204 37.6193 86.1097C38.1687 85.8943 38.736 85.8974 39.2886 86.079C39.7189 86.2204 39.9692 86.5312 39.9137 87.0107C39.8559 87.5098 39.4917 87.63 39.0736 87.6035C37.2306 87.4868 37.1996 87.9573 37.2029 89.5826C37.2041 90.1725 37.2198 90.7634 37.1922 91.3521C37.1486 92.2801 36.7647 92.4972 35.8656 92.0673Z" fill="#24712C"/>
<path d="M94.4231 88.8479C94.4265 88.1221 94.4142 87.464 94.4379 86.8072C94.4621 86.1374 94.8584 85.8573 95.4837 86.0995C95.8104 86.226 96.0713 86.2171 96.3898 86.0896C96.9111 85.8808 97.4607 85.9122 97.9927 86.0788C98.4479 86.2214 98.6342 86.5469 98.5792 87.0217C98.5241 87.4975 98.191 87.5836 97.8003 87.6007C97.7776 87.6017 97.7549 87.6026 97.7323 87.6038C95.897 87.7027 95.8799 87.7212 95.8779 89.5955C95.8772 90.2077 95.8865 90.8201 95.872 91.432C95.8609 91.9047 95.7235 92.2862 95.1379 92.2883C94.5426 92.2906 94.431 91.9206 94.433 91.4329C94.4365 90.594 94.4271 89.755 94.4231 88.8479Z" fill="#24712C"/>
<path d="M43.9209 87.7623C43.9199 89.0101 43.9205 90.1905 43.9171 91.3709C43.9157 91.8723 43.7934 92.2854 43.1756 92.2956C42.5787 92.3054 42.3746 91.9316 42.3707 91.4179C42.3591 89.8972 42.3576 88.3762 42.37 86.8555C42.3744 86.3253 42.6578 85.976 43.2083 85.9907C43.7474 86.005 43.9347 86.3772 43.9218 86.8777C43.9147 87.15 43.9207 87.4225 43.9209 87.7623Z" fill="#24712C"/>
<path d="M42.574 84.409C43.0854 84.1981 43.5679 84.093 43.8538 84.6299C43.9974 84.8994 44.0165 85.2679 43.7603 85.5118C43.473 85.7855 43.1083 85.7703 42.7484 85.6319C42.3899 85.494 42.2992 85.2105 42.3568 84.8702C42.3818 84.7226 42.471 84.5859 42.574 84.409Z" fill="#24712C"/>
</svg>
