<svg width="40" height="40" viewBox="0 0 40 40" fill="none" xmlns="http://www.w3.org/2000/svg">
<path d="M19.9995 22.167C21.5689 22.167 23.1175 22.328 24.645 22.6504L25.2983 22.7988C27.0353 23.2195 28.748 23.8509 30.436 24.6943H30.437C31.0693 25.0214 31.5911 25.4762 32.0063 26.0645L32.1782 26.3242C32.6152 27.0358 32.8335 27.8133 32.8335 28.667V32.834H7.1665V28.667C7.1665 27.9201 7.334 27.2318 7.66846 26.5947L7.82178 26.3242C8.20642 25.6979 8.69764 25.2063 9.29834 24.8428L9.56299 24.6943C11.0398 23.9564 12.5352 23.381 14.0493 22.9668L14.7007 22.7988C16.4397 22.3777 18.2058 22.167 19.9995 22.167ZM19.9995 24.5C18.4034 24.5 16.8216 24.6927 15.2554 25.0771C13.6894 25.4615 12.1407 26.0373 10.6099 26.8027L10.6001 26.8076L10.5903 26.8135C10.263 26.9953 9.99887 27.2515 9.80225 27.5732C9.5995 27.9051 9.49951 28.2737 9.49951 28.667V30.5H30.4995V28.667C30.4995 28.3227 30.4231 27.9976 30.2681 27.6992L30.1978 27.5732C30.0012 27.2516 29.7369 26.9953 29.4097 26.8135L29.3999 26.8076L29.3901 26.8027L28.8149 26.5254C27.6633 25.9868 26.5019 25.5547 25.3306 25.2305L24.7437 25.0771C23.1774 24.6927 21.5956 24.5 19.9995 24.5ZM19.9995 7.16699C21.593 7.16699 22.9607 7.69384 24.1245 8.75879L24.355 8.97852C25.5675 10.1911 26.1665 11.6343 26.1665 13.334C26.1664 15.0334 25.5673 16.4761 24.355 17.6885C23.1424 18.901 21.6992 19.5 19.9995 19.5C18.3 19.4999 16.8575 18.9009 15.645 17.6885C14.4326 16.476 13.8336 15.0335 13.8335 13.334C13.8335 11.7405 14.3602 10.3728 15.4253 9.20898L15.645 8.97852C16.8574 7.76617 18.3001 7.16707 19.9995 7.16699ZM19.9995 9.5C19.015 9.50007 18.1525 9.83417 17.4341 10.4902L17.2925 10.626C16.5467 11.3718 16.1665 12.2837 16.1665 13.334C16.1666 14.3185 16.5006 15.181 17.1567 15.8994L17.2925 16.041C18.0382 16.7867 18.9493 17.1669 19.9995 17.167C20.9843 17.167 21.8474 16.8331 22.5659 16.1768L22.7075 16.041C23.4531 15.2953 23.8334 14.3841 23.8335 13.334C23.8335 12.3493 23.4995 11.4861 22.8433 10.7676L22.7075 10.626C21.9617 9.88018 21.0498 9.5 19.9995 9.5Z" fill="black" stroke="#25632D"/>
</svg>
